FDS_states
version=1
nRows=4
nColumns=142
inDegrees=yes

# SIMM Motion File Header:
name FDS_states
datacolumns 142
datarows 4
otherdata 1
range 3.09662604956962805858 3.10041228227307241738
endheader
time	/jointset/groundthorax/r_z/value	/jointset/groundthorax/r_z/speed	/jointset/sternoclavicular/sternoclavicular_r2/value	/jointset/sternoclavicular/sternoclavicular_r2/speed	/jointset/sternoclavicular/sternoclavicular_r3/value	/jointset/sternoclavicular/sternoclavicular_r3/speed	/jointset/unrotscap/unrotscap_r3/value	/jointset/unrotscap/unrotscap_r3/speed	/jointset/unrotscap/unrotscap_r2/value	/jointset/unrotscap/unrotscap_r2/speed	/jointset/acromioclavicular/acromioclavicular_r2/value	/jointset/acromioclavicular/acromioclavicular_r2/speed	/jointset/acromioclavicular/acromioclavicular_r3/value	/jointset/acromioclavicular/acromioclavicular_r3/speed	/jointset/acromioclavicular/acromioclavicular_r1/value	/jointset/acromioclavicular/acromioclavicular_r1/speed	/jointset/unrothum/unrothum_r1/value	/jointset/unrothum/unrothum_r1/speed	/jointset/unrothum/unrothum_r3/value	/jointset/unrothum/unrothum_r3/speed	/jointset/unrothum/unrothum_r2/value	/jointset/unrothum/unrothum_r2/speed	/jointset/shoulder0/elv_angle/value	/jointset/shoulder0/elv_angle/speed	/jointset/shoulder1/shoulder_elv/value	/jointset/shoulder1/shoulder_elv/speed	/jointset/shoulder1/shoulder1_r2/value	/jointset/shoulder1/shoulder1_r2/speed	/jointset/shoulder2/shoulder_rot/value	/jointset/shoulder2/shoulder_rot/speed	/jointset/elbow/elbow_flexion/value	/jointset/elbow/elbow_flexion/speed	/jointset/radioulnar/pro_sup/value	/jointset/radioulnar/pro_sup/speed	/jointset/radiocarpal/deviation/value	/jointset/radiocarpal/deviation/speed	/jointset/radiocarpal/flexion/value	/jointset/radiocarpal/flexion/speed	/jointset/wrist_hand/wrist_hand_r1/value	/jointset/wrist_hand/wrist_hand_r1/speed	/jointset/wrist_hand/wrist_hand_r3/value	/jointset/wrist_hand/wrist_hand_r3/speed	/forceset/DELT1/activation	/forceset/DELT1/fiber_length	/forceset/DELT2/activation	/forceset/DELT2/fiber_length	/forceset/DELT3/activation	/forceset/DELT3/fiber_length	/forceset/SUPSP/activation	/forceset/SUPSP/fiber_length	/forceset/INFSP/activation	/forceset/INFSP/fiber_length	/forceset/SUBSC/activation	/forceset/SUBSC/fiber_length	/forceset/TMIN/activation	/forceset/TMIN/fiber_length	/forceset/TMAJ/activation	/forceset/TMAJ/fiber_length	/forceset/PECM1/activation	/forceset/PECM2/activation	/forceset/PECM2/fiber_length	/forceset/PECM3/activation	/forceset/PECM3/fiber_length	/forceset/LAT1/activation	/forceset/LAT1/fiber_length	/forceset/LAT2/activation	/forceset/LAT2/fiber_length	/forceset/LAT3/activation	/forceset/LAT3/fiber_length	/forceset/CORB/activation	/forceset/CORB/fiber_length	/forceset/TRIlong/activation	/forceset/TRIlong/fiber_length	/forceset/TRIlat/activation	/forceset/TRIlat/fiber_length	/forceset/TRImed/activation	/forceset/TRImed/fiber_length	/forceset/ANC/activation	/forceset/ANC/fiber_length	/forceset/SUP/activation	/forceset/SUP/fiber_length	/forceset/BIClong/activation	/forceset/BIClong/fiber_length	/forceset/BICshort/activation	/forceset/BICshort/fiber_length	/forceset/BRA/activation	/forceset/BRA/fiber_length	/forceset/BRD/activation	/forceset/BRD/fiber_length	/forceset/ECRL/activation	/forceset/ECRL/fiber_length	/forceset/ECRB/activation	/forceset/ECRB/fiber_length	/forceset/ECU/activation	/forceset/ECU/fiber_length	/forceset/FCR/activation	/forceset/FCR/fiber_length	/forceset/FCU/activation	/forceset/FCU/fiber_length	/forceset/PL/activation	/forceset/PL/fiber_length	/forceset/PT/activation	/forceset/PT/fiber_length	/forceset/PQ/activation	/forceset/PQ/fiber_length	/forceset/FDSL/activation	/forceset/FDSL/fiber_length	/forceset/FDSR/activation	/forceset/FDSR/fiber_length	/forceset/FDSM/activation	/forceset/FDSM/fiber_length	/forceset/FDSI/activation	/forceset/FDSI/fiber_length	/forceset/FDPL/activation	/forceset/FDPL/fiber_length	/forceset/FDPR/activation	/forceset/FDPR/fiber_length	/forceset/FDPM/activation	/forceset/FDPM/fiber_length	/forceset/FDPI/activation	/forceset/FDPI/fiber_length	/forceset/EDCL/activation	/forceset/EDCL/fiber_length	/forceset/EDCR/activation	/forceset/EDCR/fiber_length	/forceset/EDCM/activation	/forceset/EDCM/fiber_length	/forceset/EDCI/activation	/forceset/EDCI/fiber_length	/forceset/EDM/activation	/forceset/EDM/fiber_length	/forceset/EIP/activation	/forceset/EIP/fiber_length	/forceset/EPL/activation	/forceset/EPL/fiber_length	/forceset/EPB/activation	/forceset/EPB/fiber_length	/forceset/FPL/activation	/forceset/FPL/fiber_length	/forceset/APL/activation	/forceset/APL/fiber_length
      3.09662604956962805858	     10.00000027733259599927	      0.00000000186892970090	     -7.71237936838640170123	     11.40923890307858989956	      3.26659989597982214349	     -4.83241511260782186099	     -3.26659989597701017061	      4.83241511260941880579	      7.71237936839113125131	    -11.40923890307693433499	     -1.56159994023734483015	      2.31013879609812189386	     12.62030141437369046287	    -18.66972914426029461765	      5.67273863012145262985	     -8.39191476122899615575	     -5.67273863012136025930	      8.39191476122968538220	    -12.62030141437474917154	     18.66972914425882734690	      1.56159994023596127022	     -2.31013879609847627705	     48.40392201046105924434	    -70.42460051813320376368	     31.86926480358689772743	    -47.14550963353838142211	    -48.40392201046199716075	     70.42460051813262111864	      1.08409539210497385398	    -22.65077352925993992017	     70.87607072599038815497	     97.78482984791784815570	     18.60395210459286019500	     -5.20803395490687659475	      0.00000000137896150778	      0.00000000000689808665	      0.00000000001963265937	      0.00000000001648629888	      0.00000010553228746849	     -0.00000000090643362885	      0.00000000084571066309	      0.00000000068886590477	      0.10456059420683982975	      0.10563808193157274429	      0.22204872471905229281	      0.08673885409282756920	      0.02200000000034081984	      0.13159467792804241393	      0.06723596844728392530	      0.06482909620384094684	      0.12431395538739827000	      0.07551500590479473529	      0.02203600881083032578	      0.08017556786493659771	      0.02400327709023738348	      0.06484066029854800017	      0.05362527949863943322	      0.14016940301974800676	      0.02000000000000286965	      0.02000000000000306394	      0.10373458171692823138	      0.02000000000000314720	      0.08114882772953437018	      0.02000000000038978584	      0.18030176140089249071	      0.02000000000090211560	      0.14803218155940975342	      0.02000000000024886385	      0.21236351969286371144	      0.02000000000000106207	      0.07082008724302085723	      0.02000000000034880820	      0.17619749596100403588	      0.02000000000000074982	      0.09793084901360042671	      0.02000000000000079145	      0.09288326713970906923	      0.02298501832541217232	      0.01776453774621656462	      0.02000000000000000042	      0.03572885796207062731	      0.07454709705621599680	      0.12436474841487657472	      0.02000000000000000042	      0.14138703417808801133	      0.12026781541917425100	      0.07543951476921882671	      0.11335656447356128040	      0.15197733153539022544	      0.08522515349089207493	      0.07197526332922284109	      0.05312783315306795345	      0.05976476482958018033	      0.04655768622510049470	      0.06835523782883738686	      0.02000000000000000042	      0.05435666361684116099	      0.02000000000000000042	      0.03841382883738871101	      0.02000000000000000042	      0.05486197413208483697	      0.10895630900053639156	      0.04442572822913687380	      0.02852680465264723075	      0.02419536781733583330	      0.02249621417538507848	      0.04017942900129094219	      0.02000000000000000042	      0.06233261155023739342	      0.02000000000000000042	      0.07204386236576644509	      0.02000000000000000042	      0.08427932720630158803	      0.02000000000000000042	      0.07381725303394069682	      0.02000000000000000042	      0.07767667313727476264	      0.02000000000000000042	      0.07390166054153625430	      0.02000000000000000042	      0.07344568407694058998	      0.02200000000000000566	      0.07860861573281410775	      0.04203756390948297506	      0.06706327498996210446	      0.03113358379961830152	      0.07899365225860781325	      0.02756255560049237704	      0.07247264198223357656	      0.02402409727529789332	      0.07765041770322451964	      0.02200015923274423191	      0.06542937686157387911	      0.02200000000000000566	      0.06205830654143189989	      0.02000000000000000042	      0.06753198956559425259	      0.02000000000000000042	      0.05937130263643446149	      0.02000000000000000042	      0.07026600938847213373
      3.09802444470529403375	     10.00000027733520724382	      0.00000000186594650529	     -7.69642455706812622651	     11.40944240479326410309	      3.25984219093146565527	     -4.83250130632936691910	     -3.25984219092865146195	      4.83250130633097185751	      7.69642455707285932931	    -11.40944240479164406565	     -1.55836941549122642847	      2.31018000105584198067	     12.59419344973289511813	    -18.67006214823415533033	      5.66100327969607697298	     -8.39206444422345754219	     -5.66100327969598371425	      8.39206444422412722872	    -12.59419344973395560316	     18.67006214823267740144	      1.55836941548984220240	     -2.31018000105614529360	     48.30536474119702461394	    -70.53318739838304907153	     31.80333597896529695959	    -47.14635054783003198509	    -48.30536474119796253035	     70.53318739838245221563	      1.05240626126477043734	    -22.67099070816152917018	     71.01268381117131411884	     97.60114978751875014495	     18.59662118626485849404	     -5.27580087973160072323	      0.00000000137897112545	      0.00000000000685742567	      0.00000000001965570122	      0.00000000001646221851	      0.00000010553101961412	     -0.00000000090681990028	      0.00000000084667277924	      0.00000000068705623591	      0.10450035060526165209	      0.10569977075548989132	      0.22267866044540587933	      0.08674849683548425949	      0.02200000000033452974	      0.13155212060326593182	      0.06752714548568707065	      0.06482651633984126693	      0.12416072411125353425	      0.07551170714122963645	      0.02203534398307484959	      0.08017693677626483439	      0.02400321625371876558	      0.06483105933876200100	      0.05295041549934348390	      0.14013421378686174990	      0.02000000000000281761	      0.02000000000000300843	      0.10375058579630062894	      0.02000000000000308822	      0.08114914765837681621	      0.02000000000038263184	      0.18027022977742099275	      0.02000000000088555593	      0.14798771131722696093	      0.02000000000024429458	      0.21231419140964910564	      0.02000000000000104125	      0.07082939304156929405	      0.02000000000034240361	      0.17620906816267944972	      0.02000000000000073594	      0.09797679705461012634	      0.02000000000000077757	      0.09292912170437468700	      0.02296678434461299836	      0.01779121822388023133	      0.02000000000000000042	      0.03572794006045078297	      0.07462484868696087070	      0.12428805810609412641	      0.02000000000000000042	      0.14129721683517706965	      0.12013578451105325073	      0.07539396873532816512	      0.11328225030072033852	      0.15181851418023678546	      0.08550337487209754006	      0.07191674047383510293	      0.05310964337790247819	      0.05976562510722428778	      0.04653790083450404236	      0.06836581066366317905	      0.02000000000000000042	      0.05432508014136636781	      0.02000000000000000042	      0.03838680326681843946	      0.02000000000000000042	      0.05482614106336678589	      0.10884793505801333702	      0.04439746631170195246	      0.02847931147595776299	      0.02419635175162067678	      0.02249596019727577098	      0.04014664884818061608	      0.02000000000000000042	      0.06230524808780959350	      0.02000000000000000042	      0.07204410973423581999	      0.02000000000000000042	      0.08427962085609623510	      0.02000000000000000042	      0.07381741278520839722	      0.02000000000000000042	      0.07767684402861269044	      0.02000000000000000042	      0.07390188265299051096	      0.02000000000000000042	      0.07344593532077844933	      0.02200000000000000566	      0.07861144015577528621	      0.04201629101117066584	      0.06706902198967780449	      0.03113098431471978192	      0.07899888787386827316	      0.02756200815914547006	      0.07247621626319142307	      0.02402364990337300596	      0.07765762271637741132	      0.02200015629313408286	      0.06542934838081261584	      0.02200000000000000566	      0.06205811841916114568	      0.02000000000000000042	      0.06753198956559429422	      0.02000000000000000042	      0.05937130263643450312	      0.02000000000000000042	      0.07026600938847214761
      3.09921836348918322557	     10.00000027733743301894	      0.00000000186285088089	     -7.68280268195541271581	     11.40926371325756072395	      3.25407260755119498441	     -4.83242562102867090346	     -3.25407260754837945882	      4.83242562103025008469	      7.68280268196014670679	    -11.40926371325598331907	     -1.55561126287116047173	      2.31014381965469706159	     12.57190303045499746304	    -18.66976974287740276282	      5.65098388963814990404	     -8.39193301002798541788	     -5.65098388963805664531	      8.39193301002864977534	    -12.57190303045605972443	     18.66976974287593193935	      1.55561126286977602362	     -2.31014381965502080263	     48.22109828674428655404	    -70.62630650615209049192	     31.74704736499122503801	    -47.14561215470945398920	    -48.22109828674523868131	     70.62630650615147942517	      1.02532886839180270577	    -22.68801846430353563733	     71.12911931634724282958	     97.44693343587030653907	     18.59029544518280729903	     -5.31650644881032707900	      0.00000000137897930255	      0.00000000000684437622	      0.00000000001967532218	      0.00000000001641095108	      0.00000010552993802047	     -0.00000000090476039377	      0.00000000084749302661	      0.00000000068689381170	      0.10445000564973916379	      0.10575241667915491472	      0.22313847061112704329	      0.08675692779460231208	      0.02200000000032924924	      0.13151577791370622217	      0.06772729256995786706	      0.06482452485708364853	      0.12403281587637335348	      0.07550888204816499916	      0.02203478609124837409	      0.08017814021087991960	      0.02400316520741147680	      0.06482288166192883005	      0.05238585878007719077	      0.14010159924515733221	      0.02000000000000277250	      0.02000000000000295985	      0.10376424068921796806	      0.02000000000000303965	      0.08114942650206508068	      0.02000000000037662623	      0.18024330783244438270	      0.02000000000087165733	      0.14794974913195022004	      0.02000000000024046085	      0.21227209325872856138	      0.02000000000000102390	      0.07083731325665165723	      0.02000000000033702943	      0.17621881163861910502	      0.02000000000000072553	      0.09801591775046371302	      0.02000000000000076369	      0.09296816290419054885	      0.02295148464268649546	      0.01781393626277252840	      0.02000000000000000042	      0.03572714681300792616	      0.07467851965246215251	      0.12422269113017567199	      0.02000000000000000042	      0.14122053580729126976	      0.12002554706008938812	      0.07535508270635055128	      0.11322017487358945753	      0.15168294646849783680	      0.08569641394765170617	      0.07186667968558045627	      0.05309440306567968226	      0.05976636383401504743	      0.04652131841306979265	      0.06837476087962558735	      0.02000000000000000042	      0.05429815285294731231	      0.02000000000000000042	      0.03836373660078385567	      0.02000000000000000042	      0.05479557460904139338	      0.10875739616207254212	      0.04437334559956229718	      0.02843947469195825736	      0.02419719900355560976	      0.02249574707547495264	      0.04011868181666328192	      0.02000000000000000042	      0.06228190650855551513	      0.02000000000000000042	      0.07204432491031369235	      0.02000000000000000042	      0.08427987591814599388	      0.02000000000000000042	      0.07381755169250579784	      0.02000000000000000042	      0.07767699259167570869	      0.02000000000000000042	      0.07390207569575556190	      0.02000000000000000042	      0.07344615390013038703	      0.02200000000000000566	      0.07861382079870359030	      0.04199845804269036753	      0.06707390265502585769	      0.03112880392582269978	      0.07900331866592869012	      0.02756154889570351998	      0.07247923505365783114	      0.02402327452621727186	      0.07766374065350861722	      0.02200015382634463307	      0.06542932365311000809	      0.02200000000000000566	      0.06205795499456608771	      0.02000000000000000042	      0.06753198956559433586	      0.02000000000000000042	      0.05937130263643446149	      0.02000000000000000042	      0.07026600938847213373
      3.10041228227307241738	     10.00000027733965701771	      0.00000000186337257303	     -7.66918118902023859818	     11.40882223827670216565	      3.24830318604329271182	     -4.83223863306326428813	     -3.24830318604047540987	      4.83223863306487633196	      7.66918118902497436551	    -11.40882223827514785341	     -1.55285318763427215849	      2.31005442995137499906	     12.54961323656072202937	    -18.66904732673848599234	      5.64096478068585938104	     -8.39160828894539889689	     -5.64096478068576434595	      8.39160828894607391248	    -12.54961323656178606711	     18.66904732673704359058	      1.55285318763288726629	     -2.31005442995177112664	     48.13672042307542398021	    -70.71983615724703042815	     31.69076033025964633794	    -47.14378788201773318178	    -48.13672042307636900205	     70.71983615724643357225	      0.99823161823866424225	    -22.70374372821055430904	     71.24537212326140434016	     97.29498319883366264094	     18.58392779869339861420	     -5.35024416369609756572	      0.00000000137898746982	      0.00000000000684633021	      0.00000000001969491582	      0.00000000001642525251	      0.00000010552885842541	     -0.00000000090397844882	      0.00000000084831258302	      0.00000000068615152094	      0.10438871396102154809	      0.10580503815732723860	      0.22359291184805177299	      0.08676558285590509068	      0.02200000000032405201	      0.13147942520886796158	      0.06791399314539767196	      0.06482271403477510296	      0.12390507627927829781	      0.07550604886477167710	      0.02203423700638842617	      0.08017937336378548607	      0.02400311497128536017	      0.06481473123334506592	      0.05183177199899777904	      0.14007264322639215171	      0.02000000000000272740	      0.02000000000000291475	      0.10377788801697733490	      0.02000000000000299108	      0.08114971111688752681	      0.02000000000037071429	      0.18021638493399147474	      0.02000000000085797730	      0.14791179239688412306	      0.02000000000023668609	      0.21223001115268383399	      0.02000000000000100656	      0.07084521087943980444	      0.02000000000033173853	      0.17622843128523929535	      0.02000000000000071512	      0.09805493937711513841	      0.02000000000000075329	      0.09300710538308928910	      0.02293642770026632638	      0.01783659914189947987	      0.02000000000000000042	      0.03572634591932752346	      0.07473453212778397026	      0.12415744526583993856	      0.02000000000000000042	      0.14114385907782056595	      0.11991679036075587883	      0.07531619802289442334	      0.11315878947952784372	      0.15154740664030247332	      0.08582068189196878638	      0.07181660686836841001	      0.05307938801889763164	      0.05976710789220850834	      0.04650548486166723033	      0.06838364497246242346	      0.02000000000000000042	      0.05427126057161935774	      0.02000000000000000042	      0.03834067680639854231	      0.02000000000000000042	      0.05476503318771763773	      0.10867065727027731825	      0.04434923383897756283	      0.02840173056959573519	      0.02419805483894426484	      0.02249554498072515313	      0.04009073330127273238	      0.02000000000000000042	      0.06225858412026757938	      0.02000000000000000042	      0.07204454349911769417	      0.02000000000000000042	      0.08428013468418764365	      0.02000000000000000042	      0.07381769275329169711	      0.02000000000000000042	      0.07767714342970476193	      0.02000000000000000042	      0.07390227165034111978	      0.02000000000000000042	      0.07344637597545251861	      0.02200000000000000566	      0.07861617325498553022	      0.04198099219382728231	      0.06707875758705554581	      0.03112662713113837840	      0.07900771389188117333	      0.02756109008488681622	      0.07248222388284560058	      0.02402290510752311953	      0.07766982788383611225	      0.02200015139848877574	      0.06542929857597500065	      0.02200000000000000566	      0.06205778917604617972	      0.02000000000000000042	      0.06753198956559436361	      0.02000000000000000042	      0.05937130263643446842	      0.02000000000000000042	      0.07026600938847210598
